<svg width="16" height="14" viewBox="0 0 16 14" fill="none" xmlns="http://www.w3.org/2000/svg">
<path d="M12.333 8.85156C12.5477 9.08127 12.714 9.28494 12.834 9.46484C13.028 9.75594 13.0664 9.92623 13.0664 10C13.0664 10.146 13.0232 10.2876 12.9434 10.4072L12.8516 10.5186C12.7141 10.656 12.5274 10.7334 12.333 10.7334C12.1386 10.7333 11.9519 10.656 11.8145 10.5186C11.677 10.381 11.5996 10.1944 11.5996 10C11.5996 9.92622 11.6389 9.75603 11.833 9.46484C11.9529 9.28502 12.1184 9.08114 12.333 8.85156Z" fill="black" stroke="#848C95" stroke-width="1.2"/>
<path d="M6.95166 0.834473L8.12999 2.01314" stroke="#848C95" stroke-width="1.2" stroke-linecap="round"/>
<path d="M7.89416 1.77734L2.7085 6.96268L6.48016 10.734L11.6658 5.54834L7.89416 1.77734Z" stroke="#848C95" stroke-width="1.2" stroke-linejoin="round"/>
<path d="M4.00016 5.69092L9.65383 7.54992M1.3335 13.3333H14.6668" stroke="#848C95" stroke-width="1.2" stroke-linecap="round"/>
</svg>
