<svg width="22" height="22" viewBox="0 0 22 22" fill="none" xmlns="http://www.w3.org/2000/svg">
<path d="M5.5 11.0952C5.31766 11.0952 5.14279 11.1676 5.01386 11.2965C4.88493 11.4255 4.8125 11.6003 4.8125 11.7827C4.8125 15.2587 7.56708 18.104 11 18.104C14.4329 18.104 17.1875 15.2587 17.1875 11.7827C17.1875 8.93642 15.3404 6.51276 12.7866 5.72809L13.7216 5.17534C13.8786 5.08259 13.9924 4.93125 14.0379 4.75461C14.0834 4.57798 14.0568 4.39052 13.964 4.23346C13.8713 4.07641 13.72 3.96263 13.5433 3.91716C13.3667 3.87169 13.1792 3.89826 13.0222 3.99101L10.4967 5.48517C10.3418 5.57666 10.2289 5.72524 10.1823 5.89902C10.1357 6.0728 10.1591 6.25793 10.2474 6.41467L11.7058 9.0015C11.7502 9.08017 11.8096 9.14933 11.8807 9.20503C11.9518 9.26074 12.0331 9.30189 12.1201 9.32615C12.2071 9.35041 12.2981 9.3573 12.3877 9.34642C12.4774 9.33554 12.564 9.30711 12.6427 9.26275C12.7213 9.2184 12.7905 9.15897 12.8462 9.08789C12.9019 9.0168 12.9431 8.93544 12.9673 8.84845C12.9916 8.76145 12.9985 8.67053 12.9876 8.58088C12.9767 8.49122 12.9483 8.40459 12.9039 8.32592L12.1431 6.97659C14.2404 7.50275 15.8125 9.44334 15.8125 11.7818C15.8125 14.5299 13.6427 16.729 11 16.729C8.35725 16.729 6.1875 14.5299 6.1875 11.7827C6.1875 11.6003 6.11507 11.4255 5.98614 11.2965C5.85721 11.1676 5.68234 11.0952 5.5 11.0952Z" fill="#858585"/>
</svg>
