<svg width="22" height="22" viewBox="0 0 22 22" fill="none" xmlns="http://www.w3.org/2000/svg">
<path d="M9 10C11.2091 10 13 8.20914 13 6C13 3.79086 11.2091 2 9 2C6.79086 2 5 3.79086 5 6C5 8.20914 6.79086 10 9 10Z" stroke="currentColor" stroke-width="1.5" stroke-linecap="round" stroke-linejoin="round"/>
<path d="M2 19C2 16.2386 4.23858 14 7 14C7.55 14 8.08 14.07 8.59 14.2" stroke="currentColor" stroke-width="1.5" stroke-linecap="round"/>
<path d="M18.8823 11.1177L12.9411 17.0589C12.7629 17.2371 12.6738 17.3262 12.5999 17.4265C12.5348 17.5153 12.4785 17.6107 12.4319 17.7114C12.3794 17.8249 12.3427 17.9459 12.2694 18.1879L11.5 20.5L13.8121 19.7306C14.0541 19.6573 14.1751 19.6206 14.2886 19.5681C14.3893 19.5215 14.4847 19.4652 14.5735 19.4001C14.6738 19.3262 14.7629 19.2371 14.9411 19.0589L20.8823 13.1177C21.5892 12.4108 21.5892 11.2569 20.8823 10.55C20.1754 9.84315 19.0215 9.84315 18.3146 10.55L18.8823 11.1177ZM18.8823 11.1177L20.5 12.7354" stroke="currentColor" stroke-width="1.5" stroke-linecap="round" stroke-linejoin="round"/>
</svg>
