<svg width="12" height="16" viewBox="0 0 12 16" fill="none" xmlns="http://www.w3.org/2000/svg">
<path d="M10.2298 7.04405L6.23438 1.55619C6.16491 1.46106 6.07369 1.38393 5.96834 1.33125C5.86177 1.27782 5.74421 1.25 5.625 1.25C5.50579 1.25 5.38823 1.27782 5.28166 1.33125C5.17656 1.38402 5.08559 1.46115 5.01632 1.55619L1.02021 7.04405C0.845204 7.28236 0.750567 7.57017 0.75 7.86584C0.75 8.15973 0.844018 8.44666 1.02021 8.68762L5.01632 14.1755C5.08457 14.2695 5.1758 14.3468 5.28096 14.3997C5.38762 14.4533 5.50531 14.4812 5.62465 14.4812C5.74399 14.4812 5.86168 14.4533 5.96834 14.3997C6.0742 14.3468 6.16543 14.2695 6.23368 14.1755L10.2298 8.68762C10.406 8.44666 10.5 8.15973 10.5 7.86584C10.4994 7.57017 10.4048 7.28236 10.2298 7.04405Z" stroke="white" stroke-width="1.5" stroke-linecap="round" stroke-linejoin="round"/>
<path d="M0.759766 8.00146L5.62432 10.0093M5.62432 10.0093L10.4889 8.00146M5.62432 10.0093V14.4824" stroke="white" stroke-width="1.5" stroke-linecap="round" stroke-linejoin="round"/>
</svg>
