<svg width="24" height="24" viewBox="0 0 24 24" fill="none" xmlns="http://www.w3.org/2000/svg">
<path fill-rule="evenodd" clip-rule="evenodd" d="M14.586 2.75745C14.9611 2.38251 15.4697 2.17188 16 2.17188C16.5303 2.17188 17.0389 2.38251 17.414 2.75745L20.243 5.58645C20.6179 5.9615 20.8286 6.47012 20.8286 7.00045C20.8286 7.53078 20.6179 8.03939 20.243 8.41445L17.414 11.2434C17.0389 11.6184 16.5303 11.829 16 11.829C15.4697 11.829 14.9611 11.6184 14.586 11.2434L11.757 8.41445C11.3821 8.03939 11.1714 7.53078 11.1714 7.00045C11.1714 6.47012 11.3821 5.9615 11.757 5.58645L14.586 2.75745ZM8 3.00045C8.53043 3.00045 9.03914 3.21116 9.41421 3.58623C9.78929 3.96131 10 4.47002 10 5.00045V9.00045C10 9.53088 9.78929 10.0396 9.41421 10.4147C9.03914 10.7897 8.53043 11.0004 8 11.0004H4C3.46957 11.0004 2.96086 10.7897 2.58579 10.4147C2.21071 10.0396 2 9.53088 2 9.00045V5.00045C2 4.47002 2.21071 3.96131 2.58579 3.58623C2.96086 3.21116 3.46957 3.00045 4 3.00045H8ZM20 15.0004C20 14.47 19.7893 13.9613 19.4142 13.5862C19.0391 13.2112 18.5304 13.0004 18 13.0004H14C13.4696 13.0004 12.9609 13.2112 12.5858 13.5862C12.2107 13.9613 12 14.47 12 15.0004V19.0004C12 19.5309 12.2107 20.0396 12.5858 20.4147C12.9609 20.7897 13.4696 21.0004 14 21.0004H18C18.5304 21.0004 19.0391 20.7897 19.4142 20.4147C19.7893 20.0396 20 19.5309 20 19.0004V15.0004ZM8 13.0004C8.53043 13.0004 9.03914 13.2112 9.41421 13.5862C9.78929 13.9613 10 14.47 10 15.0004V19.0004C10 19.5309 9.78929 20.0396 9.41421 20.4147C9.03914 20.7897 8.53043 21.0004 8 21.0004H4C3.46957 21.0004 2.96086 20.7897 2.58579 20.4147C2.21071 20.0396 2 19.5309 2 19.0004V15.0004C2 14.47 2.21071 13.9613 2.58579 13.5862C2.96086 13.2112 3.46957 13.0004 4 13.0004H8Z" fill="black"/>
</svg>
