<svg width="13" height="11" viewBox="0 0 13 11" fill="none" xmlns="http://www.w3.org/2000/svg">
<path fill-rule="evenodd" clip-rule="evenodd" d="M0.549805 1.25039C0.549805 1.02496 0.639358 0.808756 0.798764 0.64935C0.95817 0.489944 1.17437 0.400391 1.3998 0.400391H11.5998C11.8252 0.400391 12.0414 0.489944 12.2008 0.64935C12.3603 0.808756 12.4498 1.02496 12.4498 1.25039C12.4498 1.47582 12.3603 1.69203 12.2008 1.85143C12.0414 2.01084 11.8252 2.10039 11.5998 2.10039H1.3998C1.17437 2.10039 0.95817 2.01084 0.798764 1.85143C0.639358 1.69203 0.549805 1.47582 0.549805 1.25039ZM0.549805 5.50039C0.549805 5.27496 0.639358 5.05876 0.798764 4.89935C0.95817 4.73994 1.17437 4.65039 1.3998 4.65039H11.5998C11.8252 4.65039 12.0414 4.73994 12.2008 4.89935C12.3603 5.05876 12.4498 5.27496 12.4498 5.50039C12.4498 5.72582 12.3603 5.94202 12.2008 6.10143C12.0414 6.26084 11.8252 6.35039 11.5998 6.35039H1.3998C1.17437 6.35039 0.95817 6.26084 0.798764 6.10143C0.639358 5.94202 0.549805 5.72582 0.549805 5.50039ZM0.549805 9.75039C0.549805 9.52496 0.639358 9.30875 0.798764 9.14935C0.95817 8.98994 1.17437 8.90039 1.3998 8.90039H6.4998C6.72524 8.90039 6.94144 8.98994 7.10084 9.14935C7.26025 9.30875 7.3498 9.52496 7.3498 9.75039C7.3498 9.97582 7.26025 10.192 7.10084 10.3514C6.94144 10.5108 6.72524 10.6004 6.4998 10.6004H1.3998C1.17437 10.6004 0.95817 10.5108 0.798764 10.3514C0.639358 10.192 0.549805 9.97582 0.549805 9.75039Z" fill="black"/>
</svg>
