<svg width="44" height="44" viewBox="0 0 44 44" fill="none" xmlns="http://www.w3.org/2000/svg">
<circle cx="22" cy="22" r="22" fill="#ED423A"/>
<path d="M29.8531 20.5438H22.1628V23.6396H26.5561C26.3666 24.6403 25.7919 25.4866 24.9256 26.0537C24.1934 26.5332 23.259 26.8167 22.1607 26.8167C20.0343 26.8167 18.2357 25.4095 17.5929 23.5187C17.4312 23.0392 17.3375 22.5264 17.3375 21.999C17.3375 21.4715 17.4312 20.9587 17.5929 20.4792C18.2379 18.5905 20.0365 17.1833 22.1628 17.1833C23.3612 17.1833 24.4361 17.5878 25.2832 18.3799L27.6246 16.0847C26.2091 14.7922 24.3637 14 22.1628 14C18.9722 14 16.2115 15.7928 14.8684 18.407C14.315 19.4869 14 20.7085 14 22.001C14 23.2936 14.315 24.5131 14.8684 25.593C16.2115 28.2072 18.9722 30 22.1628 30C24.368 30 26.2155 29.2829 27.565 28.0612C29.1082 26.6687 30 24.6173 30 22.1803C30 21.6133 29.9489 21.0692 29.8531 20.5438Z" fill="white"/>
</svg>
