<svg width="44" height="44" viewBox="0 0 44 44" fill="none" xmlns="http://www.w3.org/2000/svg">
<circle cx="22" cy="22" r="22" fill="#F0B500"/>
<path d="M21.9992 14.5C26.8325 14.5 30.75 17.5533 30.75 21.3208C30.75 25.0875 26.8325 28.1408 22 28.1408C21.5188 28.14 21.0382 28.1094 20.5608 28.0492L16.8875 30.4517C16.47 30.6725 16.3225 30.6483 16.4942 30.1075L17.2375 27.0425C14.8375 25.8258 13.25 23.7175 13.25 21.3208C13.25 17.5542 17.1667 14.5 22 14.5M26.9233 21.2167L28.1483 20.03C28.219 19.9566 28.2585 19.8586 28.2583 19.7567C28.2582 19.6548 28.2185 19.5569 28.1477 19.4837C28.0768 19.4104 27.9803 19.3676 27.8784 19.3641C27.7766 19.3606 27.6774 19.3968 27.6017 19.465L25.995 21.02V19.735C25.995 19.6307 25.9536 19.5306 25.8798 19.4569C25.806 19.3831 25.706 19.3417 25.6017 19.3417C25.4973 19.3417 25.3973 19.3831 25.3235 19.4569C25.2498 19.5306 25.2083 19.6307 25.2083 19.735V21.8658C25.1945 21.9267 25.1945 21.9899 25.2083 22.0508V23.25C25.2083 23.3543 25.2498 23.4544 25.3235 23.5281C25.3973 23.6019 25.4973 23.6433 25.6017 23.6433C25.706 23.6433 25.806 23.6019 25.8798 23.5281C25.9536 23.4544 25.995 23.3543 25.995 23.25V22.1142L26.3508 21.77L27.5408 23.4642C27.5705 23.5065 27.6083 23.5425 27.6519 23.5702C27.6956 23.5979 27.7442 23.6167 27.7952 23.6256C27.8461 23.6345 27.8982 23.6333 27.9487 23.6221C27.9991 23.6108 28.0469 23.5897 28.0892 23.56C28.1315 23.5303 28.1675 23.4925 28.1952 23.4489C28.2229 23.4053 28.2417 23.3566 28.2506 23.3057C28.2595 23.2548 28.2583 23.2026 28.2471 23.1521C28.2358 23.1017 28.2147 23.054 28.185 23.0117L26.9233 21.2167ZM24.4583 22.82H23.2417V19.7475C23.237 19.6464 23.1936 19.551 23.1204 19.4811C23.0472 19.4113 22.9499 19.3723 22.8487 19.3723C22.7476 19.3723 22.6503 19.4113 22.5771 19.4811C22.5039 19.551 22.4605 19.6464 22.4558 19.7475V23.2133C22.4558 23.43 22.6308 23.6067 22.8483 23.6067H24.4583C24.5627 23.6067 24.6627 23.5652 24.7365 23.4915C24.8102 23.4177 24.8517 23.3177 24.8517 23.2133C24.8517 23.109 24.8102 23.009 24.7365 22.9352C24.6627 22.8614 24.5627 22.82 24.4583 22.82ZM19.5775 21.9108L20.1575 20.4875L20.6892 21.91L19.5775 21.9108ZM21.68 22.3167L21.6817 22.3033C21.6814 22.2043 21.6436 22.109 21.5758 22.0367L20.7042 19.7033C20.6676 19.5921 20.598 19.4947 20.5047 19.4242C20.4113 19.3536 20.2986 19.3132 20.1817 19.3083C20.064 19.3083 19.949 19.3438 19.8519 19.4103C19.7548 19.4768 19.68 19.5711 19.6375 19.6808L18.2525 23.0767C18.213 23.1733 18.2136 23.2815 18.254 23.3777C18.2944 23.4739 18.3713 23.5501 18.4679 23.5896C18.5645 23.629 18.6728 23.6285 18.769 23.5881C18.8652 23.5477 18.9414 23.4707 18.9808 23.3742L19.2575 22.6967H20.9825L21.2308 23.3633C21.2478 23.4132 21.2745 23.4591 21.3096 23.4984C21.3446 23.5377 21.3871 23.5696 21.4347 23.5921C21.4822 23.6147 21.5338 23.6275 21.5864 23.6297C21.639 23.632 21.6915 23.6236 21.7408 23.6052C21.7901 23.5868 21.8352 23.5587 21.8735 23.5225C21.9117 23.4864 21.9423 23.4429 21.9634 23.3947C21.9846 23.3465 21.9958 23.2946 21.9965 23.2419C21.9972 23.1893 21.9874 23.1371 21.9675 23.0883L21.68 22.3167ZM18.9108 19.7517C18.9111 19.7 18.9011 19.6488 18.8814 19.6011C18.8618 19.5533 18.8329 19.5099 18.7964 19.4733C18.7599 19.4368 18.7166 19.4078 18.6689 19.3881C18.6211 19.3683 18.57 19.3582 18.5183 19.3583H15.8142C15.7098 19.3583 15.6098 19.3998 15.536 19.4735C15.4623 19.5473 15.4208 19.6473 15.4208 19.7517C15.4208 19.856 15.4623 19.956 15.536 20.0298C15.6098 20.1036 15.7098 20.145 15.8142 20.145H16.7808V23.2583C16.7808 23.3627 16.8223 23.4627 16.896 23.5365C16.9698 23.6102 17.0698 23.6517 17.1742 23.6517C17.2785 23.6517 17.3785 23.6102 17.4523 23.5365C17.5261 23.4627 17.5675 23.3627 17.5675 23.2583V20.145H18.5175C18.5692 20.1452 18.6205 20.1352 18.6683 20.1155C18.7161 20.0958 18.7596 20.0669 18.7961 20.0303C18.8327 19.9937 18.8617 19.9503 18.8813 19.9024C18.901 19.8546 18.9111 19.8034 18.9108 19.7517Z" fill="white"/>
</svg>
