<svg width="24" height="24" viewBox="0 0 24 24" fill="none" xmlns="http://www.w3.org/2000/svg">
<path d="M14.2396 16.2021C14.0126 15.5961 14.7606 15.1301 15.2036 15.5441L15.2646 15.6101L18.1146 19.0701C18.2343 19.2168 18.3217 19.3871 18.3711 19.5699C18.4205 19.7527 18.4308 19.9438 18.4014 20.1309C18.372 20.3179 18.3034 20.4966 18.2003 20.6554C18.0971 20.8142 17.9616 20.9494 17.8027 21.0523C17.6437 21.1552 17.4649 21.2234 17.2778 21.2525C17.0907 21.2816 16.8996 21.2709 16.7169 21.2212C16.5342 21.1714 16.364 21.0837 16.2175 20.9638C16.071 20.8438 15.9514 20.6944 15.8666 20.5251L15.8126 20.3991L14.2396 16.2021ZM14.8816 12.7161L14.9666 12.7421L19.1646 14.3151C19.3417 14.3819 19.5027 14.4852 19.6372 14.6184C19.7717 14.7516 19.8766 14.9116 19.9451 15.088C20.0136 15.2645 20.0442 15.4534 20.0348 15.6424C20.0254 15.8314 19.9763 16.0164 19.8906 16.1851C19.8049 16.3539 19.6847 16.5028 19.5376 16.6219C19.3906 16.7411 19.2201 16.828 19.0372 16.8768C18.8544 16.9257 18.6633 16.9355 18.4764 16.9056C18.2895 16.8756 18.111 16.8066 17.9526 16.7031L17.8356 16.6161L14.3756 13.7671C13.8756 13.3571 14.2906 12.5791 14.8816 12.7171V12.7161ZM22.9976 12.0001C22.9976 12.7891 22.3276 13.3991 21.5576 13.3441L21.4286 13.3291L17.0076 12.5921C16.3756 12.4871 16.3406 11.6241 16.9016 11.4341L17.0076 11.4081L21.4286 10.6711C21.6217 10.6388 21.8195 10.649 22.0083 10.701C22.1971 10.753 22.3722 10.8456 22.5216 10.9722C22.6709 11.0988 22.7909 11.2564 22.8731 11.4341C22.9553 11.6118 22.9978 11.8053 22.9976 12.0011V12.0001ZM19.8576 7.7501C20.2506 8.4301 19.9776 9.2911 19.2896 9.6301L19.1636 9.6851L14.9656 11.2581C14.3606 11.4851 13.8956 10.7371 14.3086 10.2941L14.3736 10.2331L17.8346 7.3831C17.9857 7.25872 18.162 7.16876 18.3514 7.11946C18.5408 7.07017 18.7386 7.06273 18.9312 7.09766C19.1237 7.13259 19.3063 7.20905 19.4663 7.32173C19.6263 7.4344 19.7598 7.58058 19.8576 7.7501ZM17.7476 2.9071C18.4256 3.2991 18.6206 4.1751 18.2006 4.8131L18.1136 4.9301L15.2646 8.3901C14.8546 8.8901 14.0766 8.4751 14.2146 7.8841L14.2396 7.7991L15.8126 3.6001C15.8812 3.41689 15.9889 3.25082 16.1282 3.11346C16.2675 2.97609 16.4351 2.87072 16.6192 2.80467C16.8034 2.73862 16.9997 2.71348 17.1946 2.731C17.3895 2.74851 17.5782 2.80827 17.7476 2.9061V2.9071ZM9.73058 15.6101C10.1406 15.1101 10.9186 15.5251 10.7806 16.1161L10.7556 16.2011L9.18258 20.4001C9.11582 20.5772 9.01248 20.7383 8.8793 20.8727C8.74613 21.0072 8.5861 21.1122 8.40966 21.1807C8.23322 21.2492 8.04432 21.2797 7.85529 21.2703C7.66625 21.2609 7.48131 21.2118 7.31253 21.1261C7.14376 21.0405 6.99493 20.9202 6.87574 20.7731C6.75656 20.6261 6.66971 20.4556 6.62084 20.2728C6.57197 20.0899 6.56218 19.8988 6.59212 19.7119C6.62206 19.525 6.69104 19.3465 6.79458 19.1881L6.88058 19.0711L9.73058 15.6101ZM10.6856 13.7061L10.6196 13.7671L7.15958 16.6171C7.01286 16.7368 6.84255 16.8242 6.65977 16.8736C6.477 16.923 6.28585 16.9333 6.09881 16.9039C5.91177 16.8745 5.73304 16.8059 5.57427 16.7028C5.4155 16.5996 5.28027 16.4641 5.17739 16.3052C5.07451 16.1462 5.0063 15.9674 4.9772 15.7803C4.9481 15.5932 4.95877 15.4021 5.00852 15.2194C5.05826 15.0367 5.14596 14.8665 5.2659 14.72C5.38584 14.5735 5.53531 14.4539 5.70458 14.3691L5.83058 14.3151L10.0286 12.7421C10.6336 12.5151 11.0986 13.2631 10.6856 13.7061ZM3.43758 10.6561L3.56658 10.6711L7.98758 11.4081C8.61958 11.5141 8.65458 12.3761 8.09358 12.5661L7.98758 12.5921L3.56658 13.3291C3.37917 13.3601 3.18733 13.351 3.00365 13.3026C2.81998 13.2542 2.64862 13.1675 2.50083 13.0482C2.35303 12.9288 2.23215 12.7796 2.14611 12.6103C2.06007 12.4409 2.01082 12.2553 2.00159 12.0656C1.99236 11.8758 2.02337 11.6863 2.09257 11.5094C2.16177 11.3325 2.2676 11.1722 2.40312 11.0391C2.53863 10.906 2.70077 10.8031 2.87888 10.7371C3.05699 10.6711 3.24705 10.6435 3.43658 10.6561H3.43758ZM7.04258 7.2971L7.15958 7.3841L10.6196 10.2331C11.1196 10.6431 10.7046 11.4211 10.1136 11.2831L10.0286 11.2581L5.83058 9.6851C5.65348 9.61834 5.49243 9.515 5.35794 9.38182C5.22344 9.24865 5.11853 9.08862 5.05003 8.91218C4.98153 8.73574 4.95098 8.54684 4.96038 8.3578C4.96977 8.16877 5.0189 7.98383 5.10457 7.81505C5.19023 7.64627 5.3105 7.49744 5.45753 7.37826C5.60457 7.25908 5.77507 7.17222 5.95792 7.12335C6.14078 7.07448 6.33188 7.0647 6.51877 7.09464C6.70566 7.12457 6.88414 7.19356 7.04258 7.2971ZM9.12858 3.4751L9.18258 3.6011L10.7556 7.7991C10.9826 8.4051 10.2346 8.8691 9.79158 8.4561L9.73058 8.3911L6.88058 4.9301C6.76091 4.78338 6.67351 4.61307 6.62409 4.43029C6.57467 4.24751 6.56434 4.05637 6.59377 3.86933C6.6232 3.68229 6.69174 3.50356 6.7949 3.34479C6.89806 3.18602 7.03354 3.05079 7.19249 2.94791C7.35144 2.84503 7.5303 2.77681 7.71739 2.74772C7.90448 2.71862 8.09561 2.72929 8.2783 2.77904C8.46099 2.82878 8.63113 2.91648 8.77764 3.03642C8.92415 3.15636 9.04373 3.30583 9.12858 3.4751ZM12.4976 3.5001C11.6656 3.5001 11.0316 4.2471 11.1686 5.0691L11.9056 9.4901C12.0176 10.1591 12.9776 10.1591 13.0896 9.4901L13.8266 5.0691C13.8588 4.87606 13.8486 4.67832 13.7967 4.48963C13.7448 4.30093 13.6523 4.12582 13.5258 3.97649C13.3993 3.82715 13.2418 3.70717 13.0642 3.6249C12.8867 3.54263 12.6933 3.50004 12.4976 3.5001ZM13.0896 14.5101C12.9776 13.8411 12.0176 13.8411 11.9056 14.5101L11.1686 18.9311C11.1367 19.1239 11.1472 19.3214 11.1994 19.5098C11.2515 19.6982 11.344 19.873 11.4704 20.022C11.5969 20.171 11.7543 20.2908 11.9316 20.3729C12.109 20.455 12.3021 20.4976 12.4976 20.4976C12.693 20.4976 12.8862 20.455 13.0635 20.3729C13.2409 20.2908 13.3983 20.171 13.5247 20.022C13.6512 19.873 13.7437 19.6982 13.7958 19.5098C13.8479 19.3214 13.8584 19.1239 13.8266 18.9311L13.0896 14.5101Z" fill="black"/>
</svg>
