<svg width="26" height="26" viewBox="0 0 26 26" fill="none" xmlns="http://www.w3.org/2000/svg">
<g clip-path="url(#clip0_246_6151)">
<path d="M9.05698 0.855259C6.45918 1.75646 4.21884 3.46697 2.66503 5.73554C1.11122 8.00412 0.325839 10.7112 0.424255 13.4591C0.522671 16.207 1.49969 18.851 3.21181 21.0026C4.92393 23.1542 7.28089 24.7 9.93651 25.4131C12.0895 25.9686 14.3452 25.993 16.5096 25.4842C18.4704 25.0437 20.2833 24.1016 21.7706 22.7501C23.3186 21.3005 24.4422 19.4564 25.0206 17.416C25.6493 15.1972 25.7612 12.8639 25.3476 10.5951H13.2576V15.6103H20.2593C20.1194 16.4101 19.8195 17.1736 19.3777 17.8549C18.9358 18.5361 18.361 19.1213 17.6878 19.5753C16.8328 20.1408 15.869 20.5214 14.8582 20.6924C13.8445 20.8809 12.8048 20.8809 11.791 20.6924C10.7636 20.48 9.79168 20.056 8.93714 19.4473C7.56431 18.4755 6.53351 17.0949 5.99183 15.5026C5.44098 13.8804 5.44098 12.1218 5.99183 10.4996C6.37741 9.36257 7.01483 8.32728 7.85651 7.47104C8.81971 6.47318 10.0392 5.75991 11.381 5.40948C12.7229 5.05904 14.1354 5.08499 15.4635 5.48448C16.501 5.80296 17.4498 6.35941 18.2342 7.10948C19.0236 6.32406 19.8118 5.53661 20.5985 4.74713C21.0048 4.3226 21.4476 3.91838 21.8478 3.4837C20.6505 2.36951 19.2451 1.50253 17.7121 0.932447C14.9206 -0.0811677 11.8662 -0.108408 9.05698 0.855259Z" fill="white"/>
<path d="M9.05727 0.85527C11.8662 -0.109052 14.9206 -0.0825291 17.7124 0.930426C19.2456 1.50438 20.6504 2.37553 21.846 3.49386C21.4398 3.92855 21.0112 4.3348 20.5968 4.7573C19.8087 5.54407 19.0212 6.32813 18.2345 7.10949C17.4501 6.35942 16.5013 5.80297 15.4638 5.48449C14.1362 5.0836 12.7237 5.05615 11.3815 5.40515C10.0392 5.75415 8.81902 6.46611 7.85477 7.46293C7.01308 8.31917 6.37566 9.35446 5.99008 10.4915L1.7793 7.23136C3.2865 4.2425 5.89613 1.95626 9.05727 0.85527Z" fill="#E33629"/>
<path d="M0.662025 10.4609C0.88835 9.33922 1.2641 8.25297 1.77921 7.2312L5.98999 10.4995C5.43915 12.1217 5.43915 13.8803 5.98999 15.5025C4.58708 16.5858 3.18348 17.6745 1.77921 18.7687C0.489675 16.2018 0.0963887 13.2772 0.662025 10.4609Z" fill="#F8BD00"/>
<path d="M13.2587 10.593H25.3487C25.7623 12.8618 25.6504 15.1952 25.0217 17.414C24.4433 19.4543 23.3197 21.2984 21.7717 22.748C20.4128 21.6877 19.0478 20.6355 17.6889 19.5752C18.3626 19.1208 18.9376 18.535 19.3795 17.853C19.8214 17.171 20.121 16.4067 20.2604 15.6061H13.2587C13.2567 13.9365 13.2587 12.2647 13.2587 10.593Z" fill="#587DBD"/>
<path d="M1.77734 18.7687C3.18161 17.6854 4.58521 16.5966 5.98812 15.5024C6.53089 17.0953 7.56317 18.476 8.9375 19.4471C9.7947 20.053 10.7687 20.4736 11.7975 20.6821C12.8112 20.8706 13.851 20.8706 14.8647 20.6821C15.8754 20.511 16.8392 20.1305 17.6942 19.5649C19.0531 20.6253 20.4181 21.6774 21.777 22.7378C20.2899 24.09 18.4771 25.0328 16.5161 25.4738C14.3516 25.9827 12.0959 25.9583 9.94297 25.4028C8.24018 24.9481 6.64965 24.1466 5.27109 23.0485C3.81197 21.8901 2.62022 20.4302 1.77734 18.7687Z" fill="#319F43"/>
</g>
<defs>
<clipPath id="clip0_246_6151">
<rect width="26" height="26" fill="none"/>
</clipPath>
</defs>
</svg>
