<svg width="26" height="23" viewBox="0 0 26 23" fill="none" xmlns="http://www.w3.org/2000/svg">
<path d="M12.9988 0C20.1797 0 26 4.36667 26 9.7547C26 15.1415 20.1797 19.5082 13 19.5082C12.2851 19.507 11.5711 19.4632 10.8618 19.3771L5.40429 22.813C4.784 23.1288 4.56486 23.0943 4.81991 22.3208L5.92429 17.9374C2.35857 16.1974 0 13.1823 0 9.7547C0 4.36787 5.81905 0 13 0M20.3147 9.60573L22.1347 7.90863C22.2397 7.80365 22.2983 7.66353 22.2981 7.51778C22.2979 7.37204 22.239 7.23206 22.1337 7.12732C22.0284 7.02258 21.885 6.96126 21.7337 6.95627C21.5824 6.95129 21.4349 7.00304 21.3225 7.10061L18.9354 9.32447V7.48675C18.9354 7.33756 18.8739 7.19448 18.7643 7.08899C18.6547 6.98349 18.506 6.92423 18.351 6.92423C18.1961 6.92423 18.0474 6.98349 17.9378 7.08899C17.8282 7.19448 17.7667 7.33756 17.7667 7.48675V10.5341C17.7461 10.6212 17.7461 10.7116 17.7667 10.7987V12.5137C17.7667 12.6629 17.8282 12.8059 17.9378 12.9114C18.0474 13.0169 18.1961 13.0762 18.351 13.0762C18.506 13.0762 18.6547 13.0169 18.7643 12.9114C18.8739 12.8059 18.9354 12.6629 18.9354 12.5137V10.8893L19.4641 10.3971L21.2321 12.8199C21.2762 12.8804 21.3323 12.932 21.3972 12.9716C21.462 13.0112 21.5343 13.0382 21.6099 13.0509C21.6856 13.0636 21.7631 13.0619 21.8381 13.0458C21.913 13.0297 21.9839 12.9995 22.0468 12.957C22.1096 12.9145 22.1631 12.8605 22.2043 12.7981C22.2455 12.7357 22.2735 12.6661 22.2867 12.5933C22.2999 12.5205 22.2981 12.4459 22.2814 12.3737C22.2646 12.3016 22.2333 12.2333 22.1891 12.1728L20.3147 9.60573ZM16.6524 11.8987H14.8448V7.50462C14.8378 7.36007 14.7733 7.22364 14.6646 7.1237C14.5559 7.02376 14.4113 6.96799 14.261 6.96799C14.1107 6.96799 13.9661 7.02376 13.8574 7.1237C13.7487 7.22364 13.6842 7.36007 13.6772 7.50462V12.4612C13.6772 12.7711 13.9372 13.0237 14.2604 13.0237H16.6524C16.8074 13.0237 16.956 12.9645 17.0656 12.859C17.1752 12.7535 17.2368 12.6104 17.2368 12.4612C17.2368 12.312 17.1752 12.169 17.0656 12.0635C16.956 11.958 16.8074 11.8987 16.6524 11.8987ZM9.40086 10.5985L10.2626 8.56292L11.0525 10.5973L9.40086 10.5985ZM12.5246 11.1789L12.527 11.1598C12.5266 11.0181 12.4704 10.8818 12.3698 10.7784L11.0748 7.44146C11.0205 7.28244 10.9171 7.14315 10.7783 7.04221C10.6396 6.94126 10.4722 6.88347 10.2985 6.87656C10.1236 6.87648 9.95282 6.92732 9.80853 7.02239C9.66424 7.11747 9.5532 7.25234 9.49 7.40928L7.43229 12.2658C7.37367 12.4039 7.37446 12.5588 7.43448 12.6963C7.49451 12.8339 7.60884 12.9429 7.75233 12.9993C7.89583 13.0557 8.05673 13.055 8.19964 12.9972C8.34255 12.9394 8.45577 12.8294 8.51438 12.6912L8.92543 11.7223H11.4883L11.8572 12.6757C11.8824 12.747 11.9222 12.8127 11.9742 12.8689C12.0262 12.9251 12.0894 12.9707 12.1601 13.0029C12.2307 13.0352 12.3074 13.0535 12.3855 13.0567C12.4636 13.0599 12.5416 13.048 12.6149 13.0217C12.6882 12.9954 12.7552 12.9552 12.812 12.9034C12.8688 12.8517 12.9143 12.7896 12.9457 12.7206C12.9771 12.6517 12.9938 12.5774 12.9949 12.5021C12.9959 12.4269 12.9812 12.3522 12.9517 12.2825L12.5246 11.1789ZM8.41038 7.51058C8.41071 7.43672 8.39586 7.36353 8.36668 7.29522C8.33751 7.22691 8.29459 7.16482 8.24039 7.11254C8.18619 7.06026 8.12178 7.01881 8.05088 6.99058C7.97997 6.96236 7.90397 6.9479 7.82724 6.94806H3.80962C3.65463 6.94806 3.50599 7.00733 3.3964 7.11282C3.28681 7.21831 3.22524 7.36139 3.22524 7.51058C3.22524 7.65977 3.28681 7.80285 3.3964 7.90834C3.50599 8.01383 3.65463 8.0731 3.80962 8.0731H5.24581V12.5256C5.24581 12.6748 5.30738 12.8178 5.41697 12.9233C5.52656 13.0288 5.6752 13.0881 5.83019 13.0881C5.98518 13.0881 6.13382 13.0288 6.24341 12.9233C6.353 12.8178 6.41457 12.6748 6.41457 12.5256V8.0731H7.826C7.90283 8.07342 7.97897 8.05908 8.05002 8.03092C8.12107 8.00277 8.18562 7.96134 8.23995 7.90905C8.29428 7.85675 8.33731 7.79461 8.36656 7.72622C8.39582 7.65783 8.41071 7.58454 8.41038 7.51058Z" fill="#4C3620"/>
</svg>
