<svg width="24" height="24" viewBox="0 0 24 24" fill="none" xmlns="http://www.w3.org/2000/svg">
<path fill-rule="evenodd" clip-rule="evenodd" d="M10.8 1.4C11.1462 1.14036 11.5673 1 12 1C12.4327 1 12.8538 1.14036 13.2 1.4L20.2 6.65C20.4484 6.83629 20.65 7.07786 20.7889 7.35557C20.9277 7.63328 21 7.93951 21 8.25V17.75C21 18.2804 20.7893 18.7891 20.4142 19.1642C20.0391 19.5393 19.5304 19.75 19 19.75H5C4.46957 19.75 3.96086 19.5393 3.58579 19.1642C3.21071 18.7891 3 18.2804 3 17.75V8.25C3 7.93951 3.07229 7.63328 3.21115 7.35557C3.35 7.07786 3.55161 6.83629 3.8 6.65L10.8 1.4Z" fill="currentColor"/>
</svg>
