<svg width="24" height="24" viewBox="0 0 24 24" fill="none" xmlns="http://www.w3.org/2000/svg">
<path fill-rule="evenodd" clip-rule="evenodd" d="M11.0002 2.7999C11.3464 2.54026 11.7675 2.3999 12.2002 2.3999C12.6329 2.3999 13.054 2.54026 13.4002 2.7999L20.4002 8.0499C20.6486 8.2362 20.8502 8.47776 20.989 8.75548C21.1279 9.03319 21.2002 9.33941 21.2002 9.6499V19.1499C21.2002 19.6803 20.9895 20.189 20.6144 20.5641C20.2393 20.9392 19.7306 21.1499 19.2002 21.1499H5.2002C4.66976 21.1499 4.16105 20.9392 3.78598 20.5641C3.41091 20.189 3.2002 19.6803 3.2002 19.1499V9.6499C3.2002 9.33941 3.27249 9.03319 3.41134 8.75548C3.5502 8.47776 3.7518 8.2362 4.0002 8.0499L11.0002 2.7999ZM12.2002 4.3999L5.2002 9.6499V19.1499H19.2002V9.6499L12.2002 4.3999Z" fill="currentColor"/>
</svg>
