<svg width="24" height="24" viewBox="0 0 24 24" fill="none" xmlns="http://www.w3.org/2000/svg">
<path d="M18.9988 19C19.2537 19.0003 19.4989 19.0979 19.6842 19.2728C19.8695 19.4478 19.9811 19.687 19.996 19.9414C20.0109 20.1958 19.9282 20.4464 19.7646 20.6418C19.601 20.8373 19.3689 20.9629 19.1158 20.993L18.9988 21H11.9988C11.744 20.9997 11.4988 20.9021 11.3135 20.7272C11.1281 20.5522 11.0166 20.313 11.0017 20.0586C10.9867 19.8042 11.0695 19.5536 11.2331 19.3582C11.3967 19.1627 11.6287 19.0371 11.8818 19.007L11.9988 19H18.9988ZM19.6298 4.368C19.862 4.60016 20.0463 4.87578 20.1719 5.17914C20.2976 5.4825 20.3623 5.80764 20.3623 6.136C20.3623 6.46436 20.2976 6.7895 20.1719 7.09286C20.0463 7.39622 19.862 7.67184 19.6298 7.904L8.73383 18.8C8.60664 18.9272 8.4576 19.0305 8.29383 19.105L4.48983 20.834C3.64783 21.217 2.78183 20.35 3.16483 19.508L4.89483 15.704C4.96899 15.5403 5.07196 15.3913 5.19883 15.264L16.0948 4.368C16.5637 3.89932 17.1994 3.63603 17.8623 3.63603C18.5252 3.63603 19.161 3.89932 19.6298 4.368ZM5.99883 1C6.20743 1.00008 6.41077 1.06539 6.5804 1.18679C6.75003 1.30818 6.87746 1.47959 6.94483 1.677L7.07483 2.055C7.22283 2.48875 7.46824 2.88283 7.79222 3.20699C8.11621 3.53115 8.51016 3.77677 8.94383 3.925L9.32183 4.054C9.51903 4.12157 9.69018 4.24908 9.81135 4.41869C9.93253 4.58831 9.99767 4.79155 9.99767 5C9.99767 5.20845 9.93253 5.41169 9.81135 5.58131C9.69018 5.75092 9.51903 5.87843 9.32183 5.946L8.94383 6.076C8.51008 6.224 8.116 6.46941 7.79184 6.79339C7.46768 7.11738 7.22206 7.51133 7.07383 7.945L6.94483 8.323C6.87726 8.5202 6.74975 8.69134 6.58014 8.81252C6.41053 8.93369 6.20728 8.99883 5.99883 8.99883C5.79038 8.99883 5.58714 8.93369 5.41753 8.81252C5.24791 8.69134 5.12041 8.5202 5.05283 8.323L4.92283 7.945C4.77484 7.51125 4.52943 7.11717 4.20544 6.79301C3.88146 6.46885 3.48751 6.22323 3.05383 6.075L2.67583 5.946C2.47864 5.87843 2.30749 5.75092 2.18632 5.58131C2.06514 5.41169 2 5.20845 2 5C2 4.79155 2.06514 4.58831 2.18632 4.41869C2.30749 4.24908 2.47864 4.12157 2.67583 4.054L3.05383 3.924C3.48759 3.776 3.88167 3.53059 4.20583 3.20661C4.52998 2.88262 4.7756 2.48867 4.92383 2.055L5.05283 1.677C5.12021 1.47959 5.24763 1.30818 5.41726 1.18679C5.58689 1.06539 5.79024 1.00008 5.99883 1Z" fill="currentColor"/>
</svg>
