<svg width="24" height="24" viewBox="0 0 24 24" fill="none" xmlns="http://www.w3.org/2000/svg">
<path fill-rule="evenodd" clip-rule="evenodd" d="M19.1454 18.4845C19.3845 18.4847 19.6145 18.5763 19.7883 18.7404C19.9622 18.9045 20.0668 19.1288 20.0808 19.3675C20.0948 19.6062 20.0172 19.8412 19.8637 20.0245C19.7103 20.2079 19.4926 20.3257 19.2552 20.3539L19.1454 20.3605H12.5793C12.3402 20.3602 12.1103 20.2687 11.9364 20.1046C11.7626 19.9404 11.6579 19.7161 11.6439 19.4775C11.6299 19.2388 11.7076 19.0038 11.861 18.8204C12.0145 18.6371 12.2321 18.5193 12.4696 18.491L12.5793 18.4845H19.1454ZM19.7373 4.75935C19.9552 4.97712 20.128 5.23566 20.2458 5.52022C20.3637 5.80477 20.4244 6.10976 20.4244 6.41777C20.4244 6.72578 20.3637 7.03077 20.2458 7.31533C20.128 7.59988 19.9552 7.85843 19.7373 8.07619L9.51667 18.2969C9.39736 18.4162 9.25756 18.5131 9.10394 18.583L5.53571 20.2048C4.7459 20.5641 3.93357 19.7508 4.29283 18.961L5.91561 15.3928C5.98517 15.2392 6.08176 15.0994 6.20077 14.98L16.4214 4.75935C16.8612 4.31972 17.4576 4.07275 18.0794 4.07275C18.7012 4.07275 19.2976 4.31972 19.7373 4.75935ZM17.7487 6.08571L7.58622 16.2464L7.03373 17.463L8.2494 16.9095L18.411 6.74983C18.4558 6.70657 18.4915 6.65481 18.5161 6.59759C18.5407 6.54037 18.5536 6.47883 18.5541 6.41655C18.5547 6.35428 18.5428 6.29252 18.5192 6.23488C18.4957 6.17724 18.4608 6.12487 18.4168 6.08084C18.3728 6.0368 18.3204 6.00197 18.2627 5.97839C18.2051 5.95481 18.1434 5.94294 18.0811 5.94348C18.0188 5.94403 17.9573 5.95696 17.9 5.98154C17.8428 6.00612 17.7911 6.04185 17.7478 6.08665M6.95118 1.6001C7.14685 1.60018 7.33759 1.66144 7.49671 1.77531C7.65583 1.88918 7.77535 2.04996 7.83855 2.23514L7.96049 2.58971C8.09932 2.99658 8.32952 3.36623 8.63342 3.6703C8.93733 3.97437 9.30686 4.20477 9.71365 4.34381L10.0682 4.46481C10.2532 4.5282 10.4137 4.6478 10.5274 4.8069C10.6411 4.966 10.7022 5.15665 10.7022 5.35218C10.7022 5.54771 10.6411 5.73836 10.5274 5.89746C10.4137 6.05656 10.2532 6.17616 10.0682 6.23955L9.71365 6.36149C9.30678 6.50031 8.93713 6.73051 8.63306 7.03442C8.32899 7.33832 8.0986 7.70785 7.95956 8.11465L7.83855 8.46922C7.77517 8.65419 7.65556 8.81474 7.49646 8.9284C7.33736 9.04206 7.14671 9.10317 6.95118 9.10317C6.75565 9.10317 6.56501 9.04206 6.40591 8.9284C6.2468 8.81474 6.1272 8.65419 6.06382 8.46922L5.94187 8.11465C5.80305 7.70778 5.57285 7.33813 5.26895 7.03406C4.96504 6.72999 4.59551 6.49959 4.18871 6.36055L3.83414 6.23955C3.64917 6.17616 3.48863 6.05656 3.37496 5.89746C3.2613 5.73836 3.2002 5.54771 3.2002 5.35218C3.2002 5.15665 3.2613 4.966 3.37496 4.8069C3.48863 4.6478 3.64917 4.5282 3.83414 4.46481L4.18871 4.34287C4.59558 4.20405 4.96524 3.97385 5.26931 3.66994C5.57337 3.36604 5.80377 2.99651 5.94281 2.58971L6.06382 2.23514C6.12702 2.04996 6.24654 1.88918 6.40566 1.77531C6.56477 1.66144 6.75552 1.60018 6.95118 1.6001ZM6.95118 4.59801C6.72929 4.87726 6.47626 5.13028 6.19701 5.35218C6.47717 5.57418 6.72856 5.82557 6.95118 6.10635C7.17318 5.82619 7.42457 5.5748 7.70535 5.35218C7.4261 5.13028 7.17308 4.87726 6.95118 4.59801Z" fill="currentColor"/>
</svg>
